<?xml version="1.0" encoding="utf-8"?>
<!-- Generator: Adobe Illustrator 23.1.1, SVG Export Plug-In . SVG Version: 6.00 Build 0)  -->
<svg version="1.1" id="Layer_1" xmlns="http://www.w3.org/2000/svg" xmlns:xlink="http://www.w3.org/1999/xlink" x="0px" y="0px"
	 viewBox="0 0 488.32 319.72" style="enable-background:new 0 0 488.32 319.72;" xml:space="preserve">
<style type="text/css">
	.st0{fill:#414042;}
	.st1{fill:#808285;}
	.st2{fill:#A41E22;}
	.st3{fill:#E62925;}
</style>
<g>
	<g>
		<g>
			<path class="st0" d="M178.18,170.23h6.68l10.51,25.04h0.19l10.42-25.04h6.68v33.08h-4.48v-27.19h-0.09l-11.17,27.19h-2.99
				l-11.17-27.19h-0.09v27.19h-4.49V170.23z"/>
			<path class="st0" d="M220.83,170.23h21.35v4.21h-16.87v9.86h15.7v4.2h-15.7v10.61h17.71v4.2h-22.19V170.23z"/>
			<path class="st0" d="M248.63,170.23h11.54c2.34,0,4.38,0.26,6.14,0.79c1.76,0.53,3.29,1.24,4.58,2.13
				c1.29,0.89,2.37,1.91,3.22,3.06s1.53,2.33,2.03,3.55c0.5,1.21,0.86,2.43,1.07,3.64c0.22,1.21,0.33,2.34,0.33,3.36
				c0,2.12-0.39,4.17-1.17,6.14c-0.78,1.98-1.93,3.74-3.46,5.28c-1.53,1.54-3.42,2.78-5.68,3.71s-4.87,1.4-7.82,1.4h-10.79V170.23z
				 M253.12,199.11h5.65c1.9,0,3.7-0.26,5.39-0.77s3.19-1.28,4.46-2.31c1.28-1.03,2.29-2.31,3.04-3.85c0.75-1.54,1.12-3.34,1.12-5.4
				c0-1.06-0.17-2.3-0.52-3.71c-0.34-1.42-0.99-2.76-1.94-4.04c-0.95-1.28-2.27-2.36-3.95-3.25c-1.68-0.89-3.86-1.33-6.54-1.33
				h-6.73V199.11z"/>
			<path class="st0" d="M284,170.23h4.49v33.08H284V170.23z"/>
			<path class="st0" d="M320.02,177.38c-0.93-1.21-2.12-2.15-3.55-2.8s-2.91-0.98-4.44-0.98c-1.87,0-3.56,0.35-5.07,1.05
				c-1.51,0.7-2.8,1.66-3.88,2.87c-1.07,1.21-1.91,2.64-2.5,4.27c-0.59,1.64-0.89,3.39-0.89,5.26c0,1.75,0.28,3.4,0.84,4.95
				c0.56,1.56,1.37,2.93,2.43,4.11c1.06,1.18,2.35,2.12,3.88,2.8c1.53,0.69,3.25,1.03,5.19,1.03c1.9,0,3.57-0.39,5-1.17
				s2.65-1.87,3.64-3.27l3.78,2.85c-0.25,0.34-0.69,0.83-1.31,1.47c-0.62,0.64-1.45,1.28-2.48,1.92c-1.03,0.64-2.27,1.2-3.71,1.68
				s-3.12,0.72-5.02,0.72c-2.62,0-4.98-0.5-7.08-1.5c-2.1-1-3.89-2.3-5.37-3.92c-1.48-1.62-2.61-3.45-3.39-5.49s-1.17-4.1-1.17-6.19
				c0-2.55,0.42-4.91,1.26-7.08s2.02-4.03,3.53-5.61c1.51-1.57,3.32-2.79,5.44-3.67s4.45-1.31,7.01-1.31c2.18,0,4.32,0.42,6.42,1.26
				s3.82,2.13,5.16,3.88L320.02,177.38z"/>
			<path class="st0" d="M340.24,170.23h4.06l14.16,33.08h-5.23l-3.32-8.18h-15.74l-3.27,8.18h-5.23L340.24,170.23z M348.28,191.21
				l-6.17-15.18h-0.09l-6.26,15.18H348.28z"/>
			<path class="st0" d="M362.76,170.23h4.49v28.87h15.18v4.2h-19.67V170.23z"/>
		</g>
	</g>
	<circle class="st1" cx="118.34" cy="108.94" r="11.64"/>
	<g>
		<path class="st2" d="M125.58,166.12c0-23.03,15.74-42.39,37.04-47.9c-3.02-0.6-6.14-0.92-9.33-0.92
			c-26.36,0-47.72,21.37-47.72,47.72c0,26.36,21.37,47.72,47.72,47.72c1.54,0,3.06-0.08,4.56-0.22
			C139.01,205.53,125.58,187.39,125.58,166.12z"/>
		<path class="st3" d="M169.95,136.51c9.08,4.99,13.31,15.39,10.87,24.98c0.89-1.06,1.69-2.22,2.38-3.48
			c5.71-10.39,1.91-23.45-8.48-29.16c-10.39-5.71-23.45-1.91-29.16,8.48c-0.33,0.61-0.63,1.22-0.9,1.85
			C151.5,133.27,161.56,131.9,169.95,136.51z"/>
	</g>
</g>
</svg>
