<?xml version="1.0" encoding="utf-8"?>
<!-- Generator: Adobe Illustrator 23.1.1, SVG Export Plug-In . SVG Version: 6.00 Build 0)  -->
<svg version="1.1" id="Layer_1" xmlns="http://www.w3.org/2000/svg" xmlns:xlink="http://www.w3.org/1999/xlink" x="0px" y="0px"
	 viewBox="0 0 161.2 160.3" style="enable-background:new 0 0 161.2 160.3;" xml:space="preserve">
<style type="text/css">
	.st0{fill:#808285;}
	.st1{fill:#A41E22;}
	.st2{fill:#E62925;}
</style>
<circle class="st0" cx="61.5" cy="32" r="11.6"/>
<g>
	<path class="st1" d="M68.7,89.2c0-23,15.7-42.4,37-47.9c-3-0.6-6.1-0.9-9.3-0.9c-26.4,0-47.7,21.4-47.7,47.7
		c0,26.4,21.4,47.7,47.7,47.7c1.5,0,3.1-0.1,4.6-0.2C82.2,128.6,68.7,110.5,68.7,89.2z"/>
	<path class="st2" d="M113.1,59.6c9.1,5,13.3,15.4,10.9,25c0.9-1.1,1.7-2.2,2.4-3.5c5.7-10.4,1.9-23.4-8.5-29.2
		c-10.4-5.7-23.4-1.9-29.2,8.5c-0.3,0.6-0.6,1.2-0.9,1.9C94.6,56.4,104.7,55,113.1,59.6z"/>
</g>
</svg>
