<?xml version="1.0"?>
<svg xmlns="http://www.w3.org/2000/svg" id="Line" width="512" height="512" viewBox="0 0 64 64"><path d="M59,45H54V38a1,1,0,0,0-1-1H38V31h5a3,3,0,0,0,3-3V16a3,3,0,0,0-3-3H31a3,3,0,0,0-3,3V28a3,3,0,0,0,3,3h5v6H21a1,1,0,0,0-1,1v7H15a3,3,0,0,0-3,3V60a3,3,0,0,0,3,3H27a3,3,0,0,0,3-3V48a3,3,0,0,0-3-3H22V39H52v6H47a3,3,0,0,0-3,3V60a3,3,0,0,0,3,3H59a3,3,0,0,0,3-3V48A3,3,0,0,0,59,45Z" style="fill:#c4a2fc"/><path d="M28,27H49a2.982,2.982,0,0,0,3-2.914V24a9.059,9.059,0,0,0-6.121-8.53,8.91,8.91,0,0,0-.131-3.57,9.1,9.1,0,0,0-7.936-6.864,8.882,8.882,0,0,0-4.788.891A9,9,0,0,0,16.2,8.088a8.418,8.418,0,0,0-2.246-.026,7.941,7.941,0,0,0-6.92,7.221A6.961,6.961,0,0,0,2,22c0,2.334,1.123,5,3.545,5H26V43H16V40a3,3,0,0,0-3-3H5a3,3,0,0,0-3,3v8a3,3,0,0,0,3,3h8a3,3,0,0,0,3-3V45H38v3a3,3,0,0,0,3,3h8a3,3,0,0,0,3-3V40a3,3,0,0,0-3-3H41a3,3,0,0,0-3,3v3H28ZM4.662,24.48a4.989,4.989,0,0,1,3.5-7.4A1.062,1.062,0,0,0,9,16.03a5.957,5.957,0,0,1,5.189-5.982,6.111,6.111,0,0,1,2.543.207,1,1,0,0,0,1.3-.87A7,7,0,0,1,31.606,7.69a1,1,0,0,0,1.5.5,6.951,6.951,0,0,1,4.526-1.16,7.013,7.013,0,0,1,6.1,8.886,1,1,0,0,0,.752,1.243A7.039,7.039,0,0,1,50,24v.075A.987.987,0,0,1,49,25H5.545A1.028,1.028,0,0,1,4.662,24.48ZM14,48a1,1,0,0,1-1,1H5a1,1,0,0,1-1-1V40a1,1,0,0,1,1-1h8a1,1,0,0,1,1,1Zm26-8a1,1,0,0,1,1-1h8a1,1,0,0,1,1,1v8a1,1,0,0,1-1,1H41a1,1,0,0,1-1-1Z" style="fill:#151a6a"/></svg>
