<svg id="Line" height="512" viewBox="0 0 64 64" width="512" xmlns="http://www.w3.org/2000/svg"><g fill="#c4a2fc"><path d="m62.316 37.051-15.154-5.051 1.684 5.051a3.024 3.024 0 0 1 0 1.9l-1.684 5.049 15.154-5.051a1 1 0 0 0 0-1.898z"/><path d="m31.17 51.01-9.69 4.85a1 1 0 0 1 -1.34-1.34l4.85-9.7 4.63 1.55z"/><path d="m55.86 21.48-4.85 9.7-4.63-1.55-1.55-4.64 9.69-4.85a1 1 0 0 1 1.34 1.34z"/><path d="m27.154 38.949a3.024 3.024 0 0 1 0-1.9l1.684-5.049-15.154 5.051a1 1 0 0 0 0 1.9l15.154 5.049z"/><path d="m31.17 24.99-1.55 4.64-4.63 1.55-4.85-9.7a1 1 0 0 1 1.34-1.34z"/><path d="m54.52 55.86-9.69-4.85 1.55-4.64 4.63-1.55 4.85 9.7a1 1 0 0 1 -1.34 1.34z"/><path d="m46.949 37.684-8-24a1 1 0 0 0 -1.9 0l-8 24a1 1 0 0 0 0 .632l8 24a1 1 0 0 0 1.9 0l8-24a1 1 0 0 0 0-.632zm-8.949 4.316a4 4 0 1 1 4-4 4 4 0 0 1 -4 4z"/></g><path d="m26 1a25 25 0 1 0 25 25 25.028 25.028 0 0 0 -25-25zm0 48a23 23 0 1 1 23-23 23.026 23.026 0 0 1 -23 23z" fill="#151a6a"/><path d="m26 6a20 20 0 1 0 20 20 20.023 20.023 0 0 0 -20-20zm1 37.949v-1.949a1 1 0 0 0 -2 0v1.949a17.994 17.994 0 0 1 -16.949-16.949h1.949a1 1 0 0 0 0-2h-1.949a17.994 17.994 0 0 1 16.949-16.949v1.949a1 1 0 0 0 2 0v-1.949a17.994 17.994 0 0 1 16.949 16.949h-1.949a1 1 0 0 0 0 2h1.949a17.994 17.994 0 0 1 -16.949 16.949z" fill="#151a6a"/><path d="m38.316 25.051-8.525-2.842-2.842-8.525a1 1 0 0 0 -1.9 0l-2.842 8.525-8.525 2.842a1 1 0 0 0 0 1.9l8.525 2.842 2.842 8.525a1 1 0 0 0 1.9 0l2.842-8.525 8.525-2.842a1 1 0 0 0 0-1.9zm-9.632 3a1 1 0 0 0 -.633.633l-2.051 6.154-2.051-6.154a1 1 0 0 0 -.633-.633l-6.154-2.051 6.154-2.051a1 1 0 0 0 .633-.633l2.051-6.154 2.051 6.154a1 1 0 0 0 .633.633l6.154 2.051z" fill="#151a6a"/></svg>